# xmcd
#
# Track frame offsets:
#	150
#	51341
#	88371
#	118413
#	147724
#	159841
#	196552
#	243392
#
# Disc length: 3585 seconds
#
# Revision: 1
# Processed by: cddbd v1.5.2PL0 Copyright (c) Steve Scherf et al.
# Submitted via: audiograbber 1.83.01
#
DISCID=720dff08
DTITLE=Grateful Dead - 69-11-01 Family Dog at the Great Highway, San Francisco 
DTITLE=CA
DYEAR=1900
DGENRE=
TTITLE0=Morning Dew
TTITLE1=Dire Wolf
TTITLE2=Cold Rain and Snow
TTITLE3=Hard To Handle
TTITLE4=Mama Tried
TTITLE5=High Time
TTITLE6=Good Lovin'
TTITLE7=Easy Wind
EXTD=
EXTT0=
EXTT1=
EXTT2=
EXTT3=
EXTT4=
EXTT5=
EXTT6=
EXTT7=
PLAYORDER=
